<?xml version="1.0" standalone="no"?>
<!DOCTYPE svg PUBLIC "-//W3C//DTD SVG 20010904//EN"
 "http://www.w3.org/TR/2001/REC-SVG-20010904/DTD/svg10.dtd">
<svg version="1.0" xmlns="http://www.w3.org/2000/svg"
 width="400.000000pt" height="400.000000pt" viewBox="0 0 400.000000 400.000000"
 preserveAspectRatio="xMidYMid meet">
<metadata>
Created by potrace 1.11, written by Peter Selinger 2001-2013
</metadata>
<g transform="translate(0.000000,400.000000) scale(0.100000,-0.100000)"
fill="#000000" stroke="none">
<path d="M1916 3805 c-131 -33 -224 -74 -302 -134 -27 -21 -48 -44 -46 -50 1
-7 -2 -10 -7 -7 -5 3 -25 -12 -45 -34 -36 -41 -46 -57 -24 -44 6 4 3 -4 -8
-18 -10 -14 -23 -23 -29 -20 -5 3 -3 -3 5 -13 13 -17 13 -18 -1 -13 -10 4 -23
-6 -39 -29 -20 -29 -21 -36 -9 -44 13 -8 6 -13 -14 -10 -5 1 -6 -3 -3 -8 3 -5
3 -17 0 -26 -6 -13 -9 -14 -16 -3 -8 10 -9 9 -5 -3 3 -10 -9 -64 -28 -120 -18
-57 -44 -169 -58 -249 -45 -253 -77 -512 -62 -498 9 8 29 122 47 266 7 50 15
92 20 92 4 0 8 -2 8 -5 0 -18 -43 -314 -56 -380 -9 -53 -11 -81 -4 -83 5 -2
10 -13 11 -25 1 -20 2 -20 9 3 11 34 11 60 0 35 -7 -16 -9 -17 -9 -3 -1 26 10
48 22 41 5 -3 7 -2 4 4 -3 5 5 53 19 105 13 53 33 152 45 220 23 140 74 388
89 433 8 25 8 22 4 -20 -3 -27 -10 -74 -16 -103 -5 -30 -7 -66 -4 -80 5 -21 4
-24 -5 -12 -8 12 -9 9 -4 -13 3 -18 2 -26 -4 -23 -12 8 -26 -78 -15 -95 4 -7
3 -10 -3 -6 -12 8 -23 -37 -23 -92 0 -20 -9 -73 -20 -119 -11 -46 -20 -95 -20
-110 0 -15 -15 -94 -34 -177 -38 -167 -52 -252 -36 -220 6 15 8 5 5 -34 -3
-47 -2 -51 10 -35 7 10 11 23 8 29 -3 5 0 5 6 -1 9 -8 10 -18 4 -30 -12 -24
-10 -50 3 -47 6 1 9 -12 7 -30 -7 -54 12 -12 60 138 83 256 127 453 148 658 6
64 14 117 17 117 9 0 -8 -196 -27 -300 -49 -264 -126 -565 -160 -626 -13 -25
-38 -109 -47 -158 -5 -28 -4 -37 4 -32 9 5 10 -7 5 -41 -10 -76 -22 -97 -21
-35 1 28 -2 55 -5 59 -4 3 -7 1 -7 -6 0 -7 -6 -27 -13 -44 -32 -76 -36 -98
-26 -153 9 -48 8 -55 -11 -74 -11 -11 -23 -20 -28 -20 -9 0 -35 -40 -38 -59
-2 -8 -13 -24 -25 -35 -20 -19 -21 -19 -15 -2 6 16 2 15 -26 -6 -53 -39 -65
-43 -37 -12 33 37 99 147 99 165 -1 22 -26 49 -36 39 -13 -13 -154 -24 -154
-12 0 6 8 13 18 15 14 4 -11 7 -105 11 -15 1 -18 -7 -15 -49 2 -27 8 -68 14
-90 12 -48 67 -167 80 -176 5 -3 -2 -20 -17 -37 -18 -22 -22 -32 -13 -36 9 -4
10 -8 2 -11 -38 -19 -46 -31 -34 -52 8 -11 27 -29 43 -38 l30 -18 -6 -181 c-9
-256 -25 -463 -48 -591 -20 -114 -23 -174 -13 -238 l7 -37 1162 0 1162 0 5
127 c4 80 0 174 -8 248 -8 66 -19 165 -25 220 -5 55 -24 174 -41 265 -39 212
-48 438 -24 610 9 63 17 124 19 135 2 16 -5 21 -32 23 -25 3 -31 0 -26 -10 3
-7 1 -6 -7 3 -7 9 -38 22 -68 29 -30 7 -67 19 -82 26 l-27 14 -3 -52 -3 -51
-26 49 c-25 49 -49 68 -49 39 0 -8 -4 -15 -10 -15 -5 0 -10 5 -10 10 0 7 -7 7
-21 -1 -21 -11 -21 -9 -15 22 11 63 18 193 19 389 1 107 5 197 9 200 4 3 1 33
-7 65 -8 33 -19 79 -25 103 -13 53 -13 95 -1 87 5 -3 13 0 17 6 8 13 7 125 -2
151 -3 10 -1 18 4 18 4 0 13 -17 20 -37 l11 -38 -6 45 c-3 25 -14 77 -24 115
-22 84 -23 98 -4 65 17 -29 19 -22 5 15 -6 16 -14 23 -21 19 -8 -5 -10 2 -6
22 6 29 -46 189 -98 300 -13 28 -33 73 -44 100 -34 87 -76 168 -114 224 -21
30 -62 89 -90 130 -29 41 -59 75 -67 76 -23 0 -50 15 -45 24 3 4 -14 16 -38
26 -57 24 -258 29 -341 9z m-376 -219 c0 -2 -8 -10 -17 -17 -16 -13 -17 -12
-4 4 13 16 21 21 21 13z m537 -96 c3 -11 14 -20 24 -20 11 0 19 -4 19 -9 0 -5
16 -7 36 -4 24 3 41 0 54 -12 10 -9 35 -17 54 -17 25 0 37 -5 41 -17 3 -10 18
-24 32 -32 43 -22 148 -134 165 -176 50 -121 68 -177 68 -205 0 -17 7 -69 16
-115 25 -135 12 -271 -51 -532 -20 -86 -69 -171 -146 -254 -55 -61 -60 -69
-41 -74 17 -4 19 -9 11 -30 -13 -36 -10 -42 6 -13 l15 25 -6 -30 c-4 -16 -26
-90 -51 -162 -31 -93 -46 -156 -50 -210 l-5 -78 36 40 c19 22 52 61 73 86 21
26 47 52 57 59 12 7 7 -3 -12 -26 -18 -21 -32 -43 -32 -49 0 -7 3 -7 8 0 4 6
21 21 37 35 l30 25 -29 -33 c-36 -39 -23 -43 16 -5 15 14 30 24 34 21 9 -10
-114 -135 -149 -151 -58 -28 -98 -91 -96 -154 l2 -38 6 42 c7 43 17 61 26 51
9 -9 -7 -108 -16 -102 -15 9 -10 -14 6 -30 8 -8 15 -30 16 -48 l1 -33 11 26
c7 19 17 26 33 25 12 0 20 -5 17 -9 -3 -5 2 -16 10 -25 8 -9 21 -32 30 -50 16
-33 16 -33 -16 -53 -43 -26 -116 -47 -207 -60 -41 -6 -82 -15 -92 -20 -50 -27
-214 17 -192 52 6 10 -46 82 -54 75 -2 -3 -10 0 -17 7 -41 40 -72 62 -87 62
-9 0 -28 10 -41 23 -15 14 -27 19 -31 13 -4 -5 2 -14 11 -20 10 -6 14 -11 9
-11 -5 0 1 -12 15 -27 13 -14 18 -23 12 -19 -7 4 -13 3 -13 -3 0 -5 6 -12 13
-14 8 -4 8 -6 0 -6 -15 -1 -86 80 -129 146 -41 64 -61 109 -85 188 l-18 60 0
-42 c-1 -25 -6 -43 -12 -43 -9 0 -10 -32 -7 -114 7 -158 23 -182 153 -225 28
-9 29 -9 5 -10 -14 0 -44 8 -67 19 -24 10 -43 15 -43 10 0 -5 4 -12 10 -15 5
-3 14 -14 20 -25 9 -16 7 -17 -16 -6 -15 6 -27 22 -31 38 -3 14 -19 39 -36 55
-24 22 -29 24 -22 8 15 -40 26 -100 21 -118 -2 -10 2 -37 10 -60 21 -61 -3
-30 -31 39 l-25 59 0 -41 c0 -28 -5 -44 -15 -48 -12 -4 -15 5 -15 55 0 43 -3
58 -12 53 -8 -5 -10 8 -5 50 3 34 2 54 -4 51 -19 -12 -21 32 -10 250 13 252
30 383 50 371 6 -4 26 63 62 209 6 22 14 44 20 50 10 10 11 -13 11 -145 0 -57
1 -66 6 -35 6 37 8 33 20 -48 7 -48 10 -92 7 -97 -3 -4 -1 -10 4 -12 5 -1 23
-61 41 -133 19 -78 44 -152 62 -185 29 -51 105 -160 112 -160 12 0 -39 357
-54 375 -5 6 -7 14 -4 18 8 8 11 76 3 71 -4 -2 -7 13 -8 34 0 20 -1 65 -2 100
-2 51 1 65 17 76 14 11 24 11 39 4 11 -6 -10 21 -46 59 -40 43 -80 99 -100
139 -30 60 -34 78 -34 146 0 43 -4 78 -9 78 -4 0 -6 9 -3 20 3 11 2 22 -2 24
-4 3 -6 38 -4 78 9 199 33 459 33 355 0 -15 5 -27 10 -27 6 0 10 4 10 9 0 5
11 12 25 15 29 7 24 26 -7 26 -19 0 -20 4 -13 48 8 54 63 189 115 279 32 56
119 143 145 143 5 0 37 14 70 30 33 17 65 30 72 30 6 0 18 6 25 13 18 16 51
36 61 36 5 1 11 -8 14 -19z m-515 -525 c-2 -14 -9 -25 -14 -25 -5 0 -7 3 -5 8
2 4 7 15 10 25 9 25 15 21 9 -8z m-72 -147 c-7 -46 -15 -77 -18 -70 -5 16 20
164 26 157 3 -2 -1 -42 -8 -87z m-23 -110 c-3 -8 -6 -5 -6 6 -1 11 2 17 5 13
3 -3 4 -12 1 -19z m1298 -872 c-8 -47 -42 -177 -49 -183 -7 -8 5 78 20 138 8
31 14 67 14 79 0 12 4 18 11 15 6 -5 8 -23 4 -49z m-1450 -26 c3 -5 1 -10 -4
-10 -6 0 -11 5 -11 10 0 6 2 10 4 10 3 0 8 -4 11 -10z m1135 -64 c0 -3 -15
-14 -32 -26 l-33 -22 30 26 c31 27 35 29 35 22z m111 -75 c-11 -20 -130 -133
-195 -184 -38 -30 -39 -30 -22 -5 9 14 49 55 89 89 39 35 85 76 101 92 36 32
40 33 27 8z m-1309 -138 c-10 -28 -10 -28 -11 12 -1 28 2 36 10 28 8 -8 8 -19
1 -40z m13 -83 c3 -5 1 -10 -4 -10 -6 0 -11 5 -11 10 0 6 2 10 4 10 3 0 8 -4
11 -10z m-39 -65 c-7 -28 -59 -91 -89 -106 -21 -12 -20 -7 14 42 24 35 12 45
-16 15 -12 -13 -37 -32 -56 -41 l-34 -18 23 25 c12 13 19 28 15 31 -3 4 -1 7
6 7 8 0 11 -6 6 -17 -3 -10 10 1 30 25 37 42 59 55 49 27 -11 -27 4 -16 27 22
23 37 36 31 25 -12z m84 9 c0 -14 -4 -23 -9 -20 -5 3 -7 15 -4 26 7 28 13 25
13 -6z m1264 3 c-2 -7 -13 -17 -23 -22 -10 -6 -42 -23 -71 -38 -82 -44 -69
-25 17 26 91 54 84 50 77 34z m-1107 -69 c-2 -13 -4 -5 -4 17 -1 22 1 32 4 23
2 -10 2 -28 0 -40z m1516 -18 c3 -11 1 -20 -4 -20 -5 0 -9 9 -9 20 0 11 2 20
4 20 2 0 6 -9 9 -20z m-1503 -47 c0 -22 -2 -25 -10 -13 -13 20 -13 40 0 40 6
0 10 -12 10 -27z m1290 -68 c-25 -27 -51 -35 -30 -10 11 13 10 15 -6 9 -18 -5
-18 -5 0 10 11 9 29 16 40 16 18 0 18 -1 -4 -25z m219 -30 c0 -5 -4 -3 -9 5
-5 8 -9 22 -9 30 0 16 17 -16 18 -35z m-1264 -5 c3 -6 -1 -7 -9 -4 -18 7 -21
14 -7 14 6 0 13 -4 16 -10z"/>
<path d="M2333 2964 c3 -3 23 -7 44 -9 21 -1 52 -5 68 -9 28 -7 29 -7 11 8
-19 15 -138 24 -123 10z"/>
<path d="M2190 2945 c-32 -11 -54 -35 -31 -35 30 0 161 34 161 42 0 12 -87 7
-130 -7z"/>
<path d="M1655 2930 c-30 -6 -30 -6 10 -13 22 -3 68 -9 103 -13 54 -5 61 -4
56 10 -3 8 -13 17 -22 20 -23 6 -110 4 -147 -4z"/>
<path d="M2218 2874 c-29 -15 -38 -27 -14 -18 10 4 16 -2 18 -18 2 -19 10 -24
41 -26 32 -3 39 0 44 17 6 25 16 26 32 7 10 -11 8 -17 -6 -26 -15 -9 -11 -10
17 -4 52 9 60 22 27 46 -15 11 -25 23 -23 26 8 14 -110 10 -136 -4z m57 -24
c3 -5 -3 -10 -14 -10 -12 0 -21 5 -21 10 0 6 6 10 14 10 8 0 18 -4 21 -10z"/>
<path d="M1665 2856 c-16 -8 -36 -23 -42 -35 -11 -17 -10 -22 6 -31 31 -16 50
-12 44 9 -7 26 24 36 32 10 10 -29 85 -24 85 6 0 23 20 27 45 11 33 -22 32 -3
-1 23 -32 25 -121 28 -169 7z m105 -26 c0 -5 -7 -10 -15 -10 -8 0 -15 5 -15
10 0 6 7 10 15 10 8 0 15 -4 15 -10z"/>
<path d="M1551 2834 c0 -11 3 -14 6 -6 3 7 2 16 -1 19 -3 4 -6 -2 -5 -13z"/>
<path d="M1920 2476 c0 -2 11 -6 25 -8 14 -3 25 -1 25 3 0 5 -11 9 -25 9 -14
0 -25 -2 -25 -4z"/>
<path d="M2075 2470 c-7 -12 12 -12 40 0 18 8 17 9 -7 9 -15 1 -30 -3 -33 -9z"/>
<path d="M2215 2331 l-30 -7 31 -5 c35 -6 54 -2 54 12 0 10 -10 10 -55 0z"/>
<path d="M1789 2296 c25 -27 53 -37 32 -12 -9 11 -8 15 5 20 9 3 20 4 24 1 5
-3 11 -2 14 3 3 5 -18 10 -47 11 l-52 2 24 -25z"/>
<path d="M1818 1930 c66 -54 324 -47 387 12 6 5 -10 1 -35 -9 -64 -26 -279
-26 -329 0 -44 22 -52 21 -23 -3z"/>
<path d="M1482 1870 c0 -19 2 -27 5 -17 2 9 2 25 0 35 -3 9 -5 1 -5 -18z"/>
<path d="M1499 1785 c-6 -20 7 -72 15 -64 2 2 1 22 -3 44 -5 30 -8 35 -12 20z"/>
<path d="M1370 1655 c-1 -5 -4 -19 -6 -30 -13 -49 -20 -181 -11 -193 5 -6 7
-27 3 -45 -5 -28 -4 -29 6 -12 12 21 24 235 15 270 -2 11 -6 16 -7 10z m-3
-162 c-3 -10 -5 -4 -5 12 0 17 2 24 5 18 2 -7 2 -21 0 -30z"/>
<path d="M1413 1300 c0 -25 2 -35 4 -22 2 12 2 32 0 45 -2 12 -4 2 -4 -23z"/>
<path d="M1431 1254 c0 -11 3 -14 6 -6 3 7 2 16 -1 19 -3 4 -6 -2 -5 -13z"/>
<path d="M1215 2250 c-4 -17 -5 -34 -2 -36 2 -3 7 10 11 27 8 42 0 50 -9 9z"/>
<path d="M1196 2164 c-4 -14 -5 -29 -2 -31 3 -3 8 7 12 21 3 15 4 29 1 32 -2
3 -8 -7 -11 -22z"/>
<path d="M1035 1580 c-18 -8 -17 -9 7 -9 15 -1 30 4 33 9 7 12 -12 12 -40 0z"/>
<path d="M1134 1554 c3 -9 6 -18 6 -20 0 -2 5 -4 10 -4 6 0 10 9 10 20 0 12
-7 20 -16 20 -11 0 -14 -5 -10 -16z"/>
<path d="M1070 1550 c-9 -6 -10 -10 -3 -10 6 0 15 5 18 10 8 12 4 12 -15 0z"/>
<path d="M1171 1504 c0 -11 3 -14 6 -6 3 7 2 16 -1 19 -3 4 -6 -2 -5 -13z"/>
<path d="M1197 1503 c-4 -3 -7 -11 -7 -17 0 -6 5 -5 12 2 6 6 9 14 7 17 -3 3
-9 2 -12 -2z"/>
<path d="M1122 1427 l-32 -52 35 37 c19 21 35 45 35 53 0 8 -1 15 -2 15 -2 0
-18 -24 -36 -53z"/>
</g>
</svg>
